<svg width="65" height="40" viewBox="0 0 65 40" fill="none" xmlns="http://www.w3.org/2000/svg">
<path d="M0 0H65V40H0V0Z" fill="#DC4F5A"/>
<path d="M40.5786 10H23.0827C21.9465 10 20.9999 10.8709 20.9999 12.007V18.4829C20.9999 24.3528 25.8472 29.238 31.8308 29.238C37.7764 29.238 42.5859 24.3528 42.5859 18.4829V12.007C42.5859 10.8709 41.6768 10 40.5786 10ZM37.9657 18.0284L32.8153 22.8758C32.5503 23.1788 32.1337 23.2924 31.8308 23.2924C31.4519 23.2924 31.0733 23.1788 30.7703 22.8758L25.6958 18.0284C25.1656 17.4604 25.0899 16.5136 25.6958 15.9077C26.2638 15.3775 27.2106 15.3018 27.7785 15.9077L31.8308 19.8083L35.9585 15.9077C36.4887 15.3018 37.4355 15.3775 37.9657 15.9077C38.4959 16.5136 38.4959 17.4604 37.9657 18.0284Z" fill="white"/>
</svg>
