<svg width="33" height="51" viewBox="0 0 33 51" fill="none" xmlns="http://www.w3.org/2000/svg">
<path d="M31.7522 35.8956C31.1718 34.5939 29.6699 33.8923 27.8842 34.0874C26.1817 34.2735 24.7229 34.9948 23.4928 36.1622C21.9578 37.6196 21.73 38.903 22.6098 40.7996C21.166 41.4263 19.9667 40.9717 19.0046 39.5143C18.1207 38.1761 17.2928 36.7758 16.2391 35.5799C15.6516 34.9129 15.0291 34.3264 12.5572 33.0865C12.4318 32.89 12.3009 32.6945 12.1587 32.5018C11.6016 31.7451 11.0217 30.9864 10.5993 30.1544C9.67278 28.3284 10.1971 26.7232 12.0684 25.9351C13.1344 25.4866 14.3453 25.3926 15.4678 25.061C15.9823 24.909 16.6754 24.6919 16.884 24.2934C17.6866 22.7612 18.326 21.1429 19.1412 19.2959C13.957 19.1813 10.5161 21.1476 8.89217 26.0824C7.74721 22.8599 8.54656 19.8721 11.0142 17.7328C13.618 15.4751 16.797 14.6805 20.0986 14.1744C20.679 14.0851 21.5345 13.8765 21.7277 13.4696C23.6631 9.39252 25.4858 5.2626 27.3814 1.05738C26.9595 0.927356 26.7472 0.8137 26.5293 0.801074C20.854 0.476477 15.4898 1.52135 10.6513 4.61669C2.09767 10.0885 0.300737 19.2229 6.21779 27.4725C7.54564 29.3232 9.23079 30.9256 10.8112 32.5851C12.5329 34.3928 12.7817 36.2085 11.4459 38.019C9.08629 36.1856 7.22573 36.0915 4.70381 37.7627C2.68282 39.1018 1.21138 40.902 0.40645 43.2139C-0.438276 45.6385 0.0575122 47.9556 1.68471 49.1805C3.42134 50.4887 5.59197 50.4027 7.75145 48.8475C10.909 46.573 12.719 43.3963 13.6526 39.6869C13.8406 38.9399 13.9267 38.2117 13.9211 37.5012L13.9449 37.5676C14.7587 37.3478 15.588 36.9853 17.3803 38.9881C17.8157 39.475 18.3078 39.9212 18.7362 40.4198C19.9658 41.8514 21.5111 42.6045 23.4007 42.5656C26.0765 42.5114 28.5264 41.7757 30.5726 39.9797C31.972 38.7514 32.371 37.2847 31.7522 35.8956Z" fill="#CB0000"/>
</svg>
