<svg width="23" height="17" viewBox="0 0 23 17" fill="none" xmlns="http://www.w3.org/2000/svg">
<path d="M11.2425 16.1237C11.1727 16.1237 4.23697 16.1184 2.51513 15.6572C1.55354 15.4004 0.796624 14.6438 0.539745 13.6826C0.0785744 11.96 0.0732422 8.34186 0.0732422 8.30551C0.0732422 8.26916 0.0785744 4.65103 0.539745 2.92919C0.796326 1.96833 1.55325 1.21141 2.51513 0.953808C4.23697 0.492637 11.1727 0.487305 11.2425 0.487305C11.3124 0.487305 18.2474 0.492637 19.9692 0.953808C20.9311 1.21141 21.688 1.96833 21.9446 2.92919C22.4058 4.65103 22.4111 8.26916 22.4111 8.30551C22.4111 8.34186 22.4058 11.96 21.9446 13.6826C21.6877 14.6438 20.9308 15.4004 19.9692 15.6572C18.2474 16.1184 11.3124 16.1237 11.2425 16.1237ZM9.00823 4.95517V11.6566L14.8116 8.30551L9.00823 4.95517Z" fill="white"/>
</svg>
