<svg width="20" height="21" viewBox="0 0 20 21" fill="none" xmlns="http://www.w3.org/2000/svg">
<path d="M5.78405 20.2274C2.59114 20.2274 -0.00585938 17.6304 -0.00585938 14.4375V6.21472C-0.00585938 3.02236 2.59114 0.424805 5.78405 0.424805H14.0068C17.1997 0.424805 19.7967 3.02236 19.7967 6.21472V14.4375C19.7967 17.6304 17.1997 20.2274 14.0068 20.2274H5.78405ZM1.8399 6.21472V14.4375C1.8399 16.6121 3.60938 18.3816 5.78405 18.3816H14.0068C16.1815 18.3816 17.9504 16.6121 17.9504 14.4375V6.21472C17.9504 4.04005 16.1815 2.27057 14.0068 2.27057H5.78405C3.60938 2.27057 1.8399 4.04005 1.8399 6.21472ZM4.77687 10.3264C4.77687 7.50382 7.07316 5.20754 9.89514 5.20754C12.7177 5.20754 15.014 7.50382 15.014 10.3264C15.014 13.1483 12.7177 15.4446 9.89514 15.4446C7.07316 15.4446 4.77687 13.1483 4.77687 10.3264ZM6.62319 10.3264C6.62319 12.1307 8.09084 13.5983 9.89514 13.5983C11.7 13.5983 13.1677 12.1307 13.1677 10.3264C13.1677 8.52151 11.7 7.0533 9.89514 7.0533C8.09084 7.0533 6.62319 8.52151 6.62319 10.3264ZM13.9526 5.04502C13.9526 4.36343 14.5049 3.81119 15.1864 3.81119C15.868 3.81119 16.4203 4.36343 16.4203 5.04502C16.4203 5.7266 15.868 6.27884 15.1864 6.27884C14.5049 6.27884 13.9526 5.7266 13.9526 5.04502Z" fill="white"/>
</svg>
