<svg width="23" height="23" viewBox="0 0 23 23" fill="none" xmlns="http://www.w3.org/2000/svg">
<path d="M9.87215 22.4204C7.25726 22.0093 4.85875 20.6732 3.12022 18.6585C1.36316 16.6224 0.395508 14.0178 0.395508 11.3246C0.395508 8.32455 1.56385 5.50403 3.6853 3.38257C5.80676 1.26111 8.62729 0.0927734 11.6273 0.0927734C14.6273 0.0927734 17.4478 1.26111 19.5693 3.38257C21.6907 5.50403 22.8591 8.32455 22.8591 11.3246C22.8591 14.0178 21.8914 16.6224 20.1344 18.6585C18.3957 20.6733 15.9982 22.0089 13.3834 22.4193L13.3825 14.5715H15.9992L16.4969 11.3246H13.3825V9.21749L13.3825 9.19667C13.3875 8.5495 13.6319 7.46382 15.2128 7.46382H16.6286V4.69977C16.6194 4.69837 15.3322 4.48028 14.1146 4.48028C11.4581 4.48028 9.87215 6.1138 9.87215 8.84994V11.3246H7.0203V14.5715H9.87215V22.4204Z" fill="white"/>
</svg>
