<svg width="23" height="19" viewBox="0 0 23 19" fill="none" xmlns="http://www.w3.org/2000/svg">
<path d="M7.0344 18.4376C15.4753 18.4376 20.0913 11.4446 20.0913 5.38072C20.0913 5.18202 20.0873 4.98418 20.0781 4.78746C20.9741 4.13978 21.753 3.3315 22.3675 2.41139C21.5452 2.7766 20.6603 3.02283 19.7321 3.13377C20.6795 2.56582 21.407 1.66682 21.75 0.595329C20.8632 1.12098 19.8814 1.50327 18.8361 1.70915C17.9987 0.817215 16.8061 0.259277 15.4865 0.259277C12.9519 0.259277 10.8967 2.31449 10.8967 4.84801C10.8967 5.20822 10.9371 5.55833 11.0157 5.89436C7.20189 5.70264 3.81993 3.87646 1.55679 1.09976C1.16231 1.77777 0.935326 2.56582 0.935326 3.40622C0.935326 4.99841 1.74547 6.40382 2.97739 7.22614C2.22477 7.20296 1.51751 6.99612 0.898994 6.652C0.89801 6.67115 0.89801 6.69039 0.89801 6.71053C0.89801 8.93321 2.48002 10.7887 4.57961 11.2095C4.19418 11.3144 3.7886 11.3709 3.36989 11.3709C3.07428 11.3709 2.78673 11.3417 2.50722 11.2881C3.09145 13.1114 4.78548 14.4381 6.79427 14.4755C5.22335 15.7064 3.24481 16.4399 1.09467 16.4399C0.724442 16.4399 0.359222 16.4187 0 16.3763C2.03098 17.6778 4.44246 18.4376 7.0344 18.4376Z" fill="white"/>
</svg>
