<svg width="192" height="52" viewBox="0 0 192 52" fill="none" xmlns="http://www.w3.org/2000/svg">
<path d="M31.7522 35.8956C31.1718 34.5939 29.6699 33.8923 27.8842 34.0874C26.1817 34.2735 24.7229 34.9948 23.4928 36.1622C21.9578 37.6196 21.73 38.903 22.6098 40.7996C21.166 41.4263 19.9667 40.9717 19.0046 39.5143C18.1207 38.1761 17.2928 36.7758 16.2391 35.5799C15.6516 34.9129 15.0291 34.3264 12.5572 33.0865C12.4318 32.89 12.3009 32.6945 12.1587 32.5018C11.6016 31.7451 11.0217 30.9864 10.5993 30.1544C9.67278 28.3284 10.1971 26.7232 12.0684 25.9351C13.1344 25.4866 14.3453 25.3926 15.4678 25.061C15.9823 24.909 16.6754 24.6919 16.884 24.2934C17.6866 22.7612 18.326 21.1429 19.1412 19.2959C13.957 19.1813 10.5161 21.1476 8.89217 26.0824C7.74721 22.8599 8.54656 19.8721 11.0142 17.7328C13.618 15.4751 16.797 14.6805 20.0986 14.1744C20.679 14.0851 21.5345 13.8765 21.7277 13.4696C23.6631 9.39252 25.4858 5.2626 27.3814 1.05738C26.9595 0.927356 26.7472 0.8137 26.5293 0.801074C20.854 0.476477 15.4898 1.52135 10.6513 4.61669C2.09767 10.0885 0.300737 19.2229 6.21779 27.4725C7.54564 29.3232 9.23079 30.9256 10.8112 32.5851C12.5329 34.3928 12.7817 36.2085 11.4459 38.019C9.08629 36.1856 7.22573 36.0915 4.70381 37.7627C2.68282 39.1018 1.21138 40.902 0.40645 43.2139C-0.438276 45.6385 0.0575122 47.9556 1.68471 49.1805C3.42134 50.4887 5.59197 50.4027 7.75145 48.8475C10.909 46.573 12.719 43.3963 13.6526 39.6869C13.8406 38.9399 13.9267 38.2117 13.9211 37.5012L13.9449 37.5676C14.7587 37.3478 15.588 36.9853 17.3803 38.9881C17.8157 39.475 18.3078 39.9212 18.7362 40.4198C19.9658 41.8514 21.5111 42.6045 23.4007 42.5656C26.0765 42.5114 28.5264 41.7757 30.5726 39.9797C31.972 38.7514 32.371 37.2847 31.7522 35.8956Z" fill="#CB0000"/>
<path d="M50.42 9.72C50.26 9.26 50.14 8.92 49.94 8.42C49.76 7.98 49.58 7.58 49.24 7.14C50.04 7 50.86 6.92 51.66 6.92C51.94 6.92 52.1 7.08 52.1 7.28C52.1 7.4 52.06 7.54 52.06 7.66C52.06 7.84 52.1 8.04 52.14 8.26C52.28 8.78 52.34 8.96 52.46 9.3C54.02 9 55.12 8.7 56.54 8.24C56.72 8.16 56.82 8.18 56.88 8.34C57 8.72 57.14 9.28 57.22 9.68C57.26 9.88 57.12 10 56.98 10.04C55.64 10.46 54.42 10.76 53.06 11.06C53.24 11.56 53.5 12.18 53.76 12.74C55.38 12.4 56.44 12.06 57.4 11.7C57.6 11.6 57.7 11.64 57.76 11.82C57.94 12.28 58.02 12.66 58.12 13.14C58.16 13.32 58.16 13.42 57.96 13.5C56.96 13.88 55.7 14.24 54.58 14.48C55.44 15.92 56.22 17.04 57.2 17.94C57.4 18.12 57.4 18.2 57.3 18.42C57.08 18.88 56.8 19.28 56.48 19.66C56.36 19.8 56.28 19.86 56.16 19.86C56.08 19.86 56 19.82 55.88 19.74C55.56 19.48 55.16 19.3 54.7 19.1C53.68 18.66 52.36 18.46 50.94 18.46C49.06 18.46 47.96 19.04 47.96 19.98C47.96 21.28 49.66 21.7 52.72 21.7C53.46 21.7 54.2 21.62 54.92 21.58C55.12 21.58 55.18 21.68 55.16 21.84C55.08 22.34 54.94 23.12 54.76 23.66C54.7 23.86 54.62 23.94 54.34 23.96C53.88 24 53.4 24.02 52.9 24.02C48.3 24.02 45.86 22.72 45.86 20.26C45.86 18.12 47.7 16.78 50.82 16.78C52.28 16.78 53.46 16.94 54.26 17.28C53.8 16.74 53.14 15.78 52.6 14.92C50.54 15.24 48.58 15.48 47.12 15.52C46.9 15.52 46.82 15.44 46.76 15.24C46.64 14.84 46.46 14.16 46.4 13.6C48.4 13.56 50 13.4 51.78 13.1C51.58 12.68 51.28 12 51.02 11.44C49.18 11.72 47.7 11.9 46.16 11.92C45.92 11.92 45.8 11.84 45.76 11.64C45.7 11.42 45.56 10.68 45.44 10.04C47.4 10.06 49 9.9 50.42 9.72ZM70.78 10.5C71.56 10.36 72.64 10.1 73.62 9.82C73.84 9.76 73.92 9.86 73.94 10.02C74 10.46 74.06 11.04 74.08 11.46C74.1 11.72 74.04 11.78 73.78 11.84C72.54 12.18 71.52 12.4 70.3 12.6C68.94 17.04 67.92 20.1 66.64 23.42C66.54 23.7 66.42 23.68 66.2 23.62C66 23.54 65.02 23.12 64.6 22.88C64.44 22.78 64.38 22.62 64.44 22.48C65.96 18.98 66.92 16.34 67.9 13C66.74 13.12 65.34 13.22 64.4 13.22C64.1 13.22 64.02 13.16 63.98 12.9C63.9 12.48 63.8 11.8 63.7 11.08C64.12 11.14 64.36 11.14 65.18 11.14C66.18 11.14 67.26 11.08 68.42 10.94C68.62 10.14 68.78 9.26 68.92 8.44C69 7.84 69.04 7.24 69.04 6.6C70.1 6.76 70.92 6.9 71.56 7.16C71.72 7.22 71.78 7.36 71.78 7.48C71.78 7.56 71.78 7.66 71.68 7.8C71.52 8.08 71.36 8.28 71.26 8.6C71.06 9.32 70.92 10 70.78 10.5ZM71.14 19.68C71.76 19.52 72.58 19.38 72.84 19.38C73.04 19.38 73.12 19.46 73.14 19.66C73.3 21.12 74.28 21.54 76.2 21.54C77.32 21.54 78.76 21.36 79.56 21.26C79.72 21.24 79.78 21.28 79.8 21.44C79.88 21.96 79.96 22.64 79.96 23.18C79.98 23.42 79.96 23.48 79.64 23.5C78.96 23.6 77.66 23.72 76.92 23.72C74.3 23.72 72.94 23.36 72.04 22.42C71.4 21.78 71.18 20.84 71.14 19.68ZM72.7 15.9C72.66 15.2 72.62 14.48 72.62 14.08C72.62 13.8 72.68 13.74 72.98 13.68C74.24 13.42 75.72 13.22 76.88 13.22C77.66 13.22 78.52 13.3 79.22 13.42C79.5 13.46 79.56 13.48 79.56 13.72C79.6 14.22 79.6 14.78 79.58 15.32C79.58 15.66 79.48 15.74 79.2 15.68C78.5 15.54 77.58 15.44 76.72 15.44C75.52 15.44 74 15.64 72.7 15.9ZM87.82 10.14V8.36C87.82 7.84 87.76 7.26 87.58 6.72C88.6 6.8 89.4 6.9 89.96 7.06C90.22 7.12 90.38 7.24 90.38 7.4C90.38 7.52 90.34 7.64 90.22 7.86C90.12 8.06 90.08 8.26 90.06 8.54C90.04 8.92 90.04 9.24 90.02 9.88C90.94 9.74 91.8 9.58 92.78 9.34C93.12 9.26 93.14 9.32 93.16 9.58C93.22 10.08 93.26 10.54 93.26 11.02C93.26 11.26 93.18 11.3 93.02 11.34C92.12 11.56 91.16 11.72 89.92 11.88C89.86 13.32 89.84 14.08 89.8 15.48C89.92 15.84 89.98 16.26 89.98 16.82C89.98 17.86 89.7 18.78 89.02 19.42C88.8 19.84 88.74 20.24 88.74 20.62C88.74 21.4 89.14 21.92 91.36 21.92C94.4 21.92 95.96 21.16 95.96 19.56C95.96 18.78 95.88 18.04 95.54 16.92C96.42 17.32 97.02 17.42 97.56 17.5C97.74 17.52 97.92 17.68 97.96 17.86C98.12 18.4 98.26 19.14 98.26 20.06C98.26 22.58 96.24 24 91.64 24C88.1 24 86.58 23.1 86.58 21.16C86.58 20.58 86.66 20.22 86.78 19.84C86.7 19.86 86.58 19.86 86.46 19.86C85.08 19.86 84.06 18.56 84.06 16.98C84.06 15.2 85.24 13.84 86.72 13.84C87.2 13.84 87.5 13.9 87.78 14C87.8 13.34 87.82 12.72 87.82 12.06C86.56 12.12 85.46 12.12 84.48 12.1C84.3 12.1 84.24 12.02 84.22 11.8C84.16 11.4 84.1 10.82 84.04 10.12C85.3 10.22 86.26 10.2 87.82 10.14ZM86.88 15.48C86.16 15.48 85.78 16.04 85.78 16.84C85.78 17.68 86.2 18.18 86.94 18.16C87.56 18.14 87.98 17.58 87.96 16.7C87.96 15.96 87.56 15.48 86.88 15.48ZM95.26 12C95.76 11.42 96.26 10.88 96.54 10.6C96.7 10.44 96.78 10.44 96.96 10.52C98.36 11.14 99.88 12.32 100.74 13.26C100.82 13.34 100.84 13.4 100.84 13.46C100.84 13.52 100.8 13.6 100.74 13.68C100.38 14.2 100 14.66 99.6 15.06C99.52 15.14 99.46 15.18 99.38 15.18C99.32 15.18 99.24 15.12 99.16 15.02C98.24 13.92 96.88 12.8 95.26 12ZM107.92 8.28C108.4 7.56 108.78 7.04 109.1 6.72C109.2 6.62 109.32 6.56 109.48 6.62C110.96 7.2 112.2 7.96 113.4 9C113.5 9.08 113.54 9.14 113.54 9.22C113.54 9.28 113.5 9.36 113.44 9.46C113.18 9.88 112.76 10.46 112.42 10.86C112.34 10.96 112.26 11.02 112.2 11.02C112.12 11.02 112.06 10.98 111.96 10.88C110.84 9.9 109.5 8.98 107.92 8.28ZM106.52 11.06C107.3 11.28 108.14 11.52 108.6 11.78C108.82 11.88 108.92 12 108.92 12.16C108.92 12.26 108.88 12.36 108.82 12.46C108.64 12.78 108.5 13.14 108.42 13.52C108.22 14.54 108.02 16.02 107.94 17.16C109.78 15.3 112.18 14 114.62 14C117.54 14 119.28 15.7 119.28 18.28C119.28 20.46 117.98 21.9 116.26 22.76C114.92 23.44 112.86 23.92 111.14 24.14C110.7 24.2 110.52 24.18 110.34 23.88C109.96 23.2 109.6 22.66 108.98 22.18C111.22 22.04 113.14 21.66 114.48 21.06C116.1 20.36 116.84 19.32 116.84 18.04C116.84 16.96 116.16 15.98 114.44 15.98C112.68 15.98 110.56 17.12 108.68 19.02C108.32 19.38 108.06 19.72 107.82 20.12C107.7 20.32 107.62 20.32 107.36 20.26C106.9 20.1 106.42 19.92 106 19.72C105.8 19.64 105.72 19.6 105.72 19.32C105.84 17 106.1 14.64 106.34 12.86C106.42 12.26 106.52 11.74 106.52 11.06ZM46.515 35.74C46.695 35.305 47.025 34.54 47.145 34.3C47.265 34.06 47.34 34.06 47.55 34.105C49.14 34.405 51.405 35.02 52.89 35.68C53.13 35.785 53.16 35.86 53.07 36.055C52.965 36.415 52.695 37.03 52.545 37.36C52.47 37.54 52.335 37.54 52.185 37.465C50.43 36.67 48.435 36.085 46.515 35.74ZM45.51 39.64C45.75 39.04 46.005 38.485 46.155 38.215C46.23 38.05 46.32 38.005 46.545 38.065C48.135 38.41 49.86 38.935 51.12 39.52C51.36 39.625 51.39 39.73 51.315 39.955C51.225 40.24 50.97 40.825 50.82 41.11C50.745 41.245 50.685 41.305 50.61 41.305C50.55 41.305 50.49 41.29 50.415 41.245C48.81 40.48 47.22 40.015 45.51 39.64ZM45.27 44.095C45.465 43.63 45.765 43.03 45.96 42.685C46.035 42.55 46.125 42.46 46.38 42.505C48.66 42.85 51.165 43.675 53.565 44.845C53.73 44.92 53.82 45.04 53.715 45.25C53.535 45.685 53.325 46.105 53.115 46.48C53.04 46.6 52.98 46.66 52.89 46.66C52.83 46.66 52.755 46.63 52.68 46.585C50.25 45.355 47.865 44.59 45.27 44.095ZM66.735 44.065H67.44C68.04 44.065 68.7 44.05 69.27 44.05C69.525 44.035 69.585 44.08 69.6 44.32C69.615 44.605 69.615 44.98 69.6 45.265C69.585 45.55 69.54 45.565 69.315 45.565C68.64 45.565 67.92 45.55 67.23 45.55H61.71C61.095 45.55 60.51 45.55 59.775 45.58C59.61 45.58 59.55 45.505 59.52 45.28C59.46 44.965 59.445 44.485 59.445 44.02C60.3 44.08 60.855 44.08 61.605 44.08H65.085L65.595 40.435H63.18C62.595 40.435 61.92 40.465 61.53 40.48C61.35 40.495 61.29 40.45 61.26 40.195C61.215 39.88 61.185 39.4 61.155 38.905C62.16 38.95 62.61 38.98 63.24 38.98H65.31C65.85 38.98 65.985 38.935 66.195 38.845C66.255 38.8 66.315 38.785 66.36 38.785C66.435 38.785 66.51 38.83 66.585 38.875C66.855 39.07 67.26 39.4 67.5 39.7C67.59 39.79 67.635 39.88 67.635 39.97C67.635 40.06 67.59 40.15 67.5 40.24C67.305 40.45 67.26 40.615 67.2 40.99L66.735 44.065ZM81.75 41.365H76.35C74.865 41.365 74.295 41.545 74.145 41.545C73.965 41.545 73.845 41.455 73.8 41.23C73.725 40.885 73.635 40.18 73.575 39.415C74.55 39.565 75.3 39.595 76.815 39.595H81.645C82.785 39.595 83.94 39.565 85.095 39.55C85.32 39.535 85.365 39.58 85.365 39.76C85.395 40.21 85.395 40.72 85.365 41.17C85.365 41.35 85.305 41.41 85.095 41.395C83.97 41.38 82.86 41.365 81.75 41.365ZM88.485 39.625C88.86 39.025 89.1 38.59 89.28 38.35C89.355 38.245 89.43 38.17 89.565 38.2C90.69 38.575 91.59 39.055 92.445 39.67C92.55 39.745 92.61 39.805 92.61 39.895C92.61 39.94 92.58 40 92.55 40.06C92.385 40.465 92.13 40.855 91.89 41.2C91.815 41.29 91.755 41.35 91.695 41.35C91.635 41.35 91.59 41.32 91.515 41.26C90.555 40.555 89.58 40.06 88.485 39.625ZM90.3 36.1C90.555 35.71 90.84 35.29 91.095 34.9C91.2 34.72 91.29 34.69 91.47 34.78C92.43 35.17 93.465 35.725 94.29 36.445C94.38 36.505 94.41 36.58 94.41 36.64C94.41 36.7 94.395 36.76 94.35 36.835C94.14 37.21 93.84 37.69 93.585 37.96C93.54 38.035 93.48 38.05 93.435 38.05C93.36 38.05 93.285 38.005 93.21 37.945C92.43 37.3 91.26 36.535 90.3 36.1ZM89.67 44.65C90.3 44.53 90.825 44.365 91.71 43.915C93.135 43.165 94.365 42.46 95.82 41.32C97.02 40.405 98.625 38.965 100.14 37.135C100.23 37.795 100.35 38.17 100.575 38.815C100.62 38.92 100.65 39.01 100.65 39.1C100.65 39.22 100.605 39.325 100.485 39.445C99.09 40.945 98.145 41.77 96.675 42.91C95.37 43.9 93.975 44.755 92.19 45.73C91.83 45.925 91.47 46.09 91.32 46.24C91.23 46.33 91.155 46.36 91.08 46.36C90.975 46.36 90.87 46.3 90.78 46.18C90.465 45.865 90.06 45.28 89.67 44.65ZM97.17 34.99L97.965 34.435C98.04 34.375 98.1 34.39 98.19 34.465C98.655 34.825 99.195 35.425 99.615 36.07C99.675 36.16 99.675 36.235 99.57 36.31L98.94 36.775C98.835 36.85 98.76 36.835 98.685 36.73C98.235 36.04 97.755 35.47 97.17 34.99ZM98.55 34L99.3 33.46C99.39 33.4 99.435 33.415 99.525 33.49C100.08 33.91 100.62 34.51 100.95 35.035C101.01 35.125 101.025 35.215 100.905 35.305L100.305 35.77C100.185 35.86 100.11 35.815 100.05 35.725C99.645 35.08 99.165 34.51 98.55 34ZM104.745 38.935C105.255 38.65 105.615 38.485 105.93 38.335C106.095 38.26 106.2 38.275 106.32 38.44C106.845 39.1 107.325 39.865 107.61 40.66C107.64 40.765 107.67 40.825 107.67 40.885C107.67 40.975 107.61 41.02 107.49 41.095C107.13 41.305 106.875 41.425 106.53 41.56C106.32 41.635 106.23 41.56 106.155 41.35C105.81 40.48 105.345 39.655 104.745 38.935ZM107.76 38.17C108.36 37.885 108.705 37.72 108.96 37.615C109.125 37.54 109.23 37.555 109.35 37.735C109.755 38.26 110.265 39.205 110.505 39.925C110.58 40.15 110.55 40.225 110.355 40.33C110.07 40.495 109.74 40.645 109.32 40.795C109.155 40.855 109.095 40.78 109.02 40.57C108.675 39.685 108.33 38.965 107.76 38.17ZM112.485 37.81C113.115 38.005 113.79 38.275 114.165 38.53C114.285 38.62 114.36 38.695 114.36 38.785C114.36 38.875 114.315 38.95 114.195 39.055C113.97 39.25 113.865 39.55 113.745 39.82C113.1 41.35 112.32 42.715 111.48 43.81C110.49 45.07 109.665 45.865 108.39 46.705C108.27 46.795 108.15 46.87 108.03 46.87C107.955 46.87 107.865 46.84 107.79 46.765C107.415 46.465 107.07 46.3 106.515 46.135C108.315 44.95 109.215 44.185 110.115 43.015C110.865 42.04 111.705 40.57 112.14 39.4C112.335 38.845 112.425 38.515 112.485 37.81ZM124.53 36.415L127.23 36.355C127.62 36.34 127.815 36.28 127.98 36.175C128.04 36.13 128.1 36.115 128.175 36.115C128.25 36.115 128.325 36.145 128.415 36.205C128.79 36.445 129.135 36.73 129.435 37.015C129.57 37.135 129.63 37.255 129.63 37.36C129.63 37.48 129.555 37.585 129.45 37.675C129.24 37.84 129.09 38.05 128.955 38.32C127.95 40.36 126.99 41.815 125.985 42.955C124.695 44.41 122.91 45.865 121.425 46.69C121.335 46.75 121.26 46.765 121.185 46.765C121.065 46.765 120.96 46.705 120.84 46.6C120.465 46.3 120 46.075 119.415 45.91C121.755 44.62 122.94 43.675 124.41 42.085C125.595 40.765 126.285 39.745 127.185 37.825L123.555 37.93C122.325 39.445 121.575 40.3 120.72 41.005C120.615 41.11 120.51 41.17 120.405 41.17C120.33 41.17 120.255 41.14 120.18 41.08C119.805 40.81 119.25 40.54 118.74 40.435C120.69 38.845 121.845 37.45 122.775 35.98C123.27 35.14 123.495 34.675 123.66 33.955C124.515 34.255 125.085 34.51 125.415 34.75C125.52 34.825 125.565 34.915 125.565 35.005C125.565 35.095 125.52 35.185 125.4 35.26C125.25 35.35 125.145 35.515 125.025 35.665C124.86 35.92 124.71 36.145 124.53 36.415ZM137.19 35.575H141.315C141.855 35.575 142.125 35.56 142.35 35.44C142.41 35.395 142.455 35.38 142.515 35.38C142.605 35.38 142.68 35.44 142.77 35.5C143.115 35.77 143.46 36.16 143.745 36.55C143.79 36.625 143.82 36.685 143.82 36.745C143.82 36.835 143.76 36.94 143.625 37.045C143.43 37.21 143.235 37.435 143.07 37.705C142.455 38.755 141.87 39.595 141.15 40.51C142.59 41.575 143.925 42.745 145.305 44.14C145.38 44.215 145.425 44.29 145.425 44.35C145.425 44.41 145.395 44.485 145.32 44.575C145.035 44.92 144.69 45.28 144.315 45.595C144.255 45.655 144.195 45.685 144.135 45.685C144.06 45.685 144 45.64 143.925 45.565C142.665 44.095 141.375 42.91 140.025 41.845C138.33 43.615 136.62 44.89 134.985 45.805C134.85 45.865 134.745 45.925 134.64 45.925C134.55 45.925 134.46 45.88 134.385 45.79C134.055 45.385 133.62 45.085 133.125 44.815C135.465 43.63 136.86 42.565 138.405 40.99C139.485 39.865 140.31 38.8 141.225 37.225L137.355 37.24C136.575 37.24 135.795 37.27 134.985 37.33C134.865 37.345 134.82 37.24 134.79 37.075C134.715 36.76 134.655 36.04 134.655 35.515C135.465 35.575 136.215 35.575 137.19 35.575ZM154.53 36.415L157.23 36.355C157.62 36.34 157.815 36.28 157.98 36.175C158.04 36.13 158.1 36.115 158.175 36.115C158.25 36.115 158.325 36.145 158.415 36.205C158.79 36.445 159.135 36.73 159.435 37.015C159.57 37.135 159.63 37.255 159.63 37.36C159.63 37.48 159.555 37.585 159.45 37.675C159.24 37.84 159.09 38.05 158.955 38.32C157.95 40.36 156.99 41.815 155.985 42.955C154.695 44.41 152.91 45.865 151.425 46.69C151.335 46.75 151.26 46.765 151.185 46.765C151.065 46.765 150.96 46.705 150.84 46.6C150.465 46.3 150 46.075 149.415 45.91C151.755 44.62 152.94 43.675 154.41 42.085C155.595 40.765 156.285 39.745 157.185 37.825L153.555 37.93C152.325 39.445 151.575 40.3 150.72 41.005C150.615 41.11 150.51 41.17 150.405 41.17C150.33 41.17 150.255 41.14 150.18 41.08C149.805 40.81 149.25 40.54 148.74 40.435C150.69 38.845 151.845 37.45 152.775 35.98C153.27 35.14 153.495 34.675 153.66 33.955C154.515 34.255 155.085 34.51 155.415 34.75C155.52 34.825 155.565 34.915 155.565 35.005C155.565 35.095 155.52 35.185 155.4 35.26C155.25 35.35 155.145 35.515 155.025 35.665C154.86 35.92 154.71 36.145 154.53 36.415ZM171.75 41.365H166.35C164.865 41.365 164.295 41.545 164.145 41.545C163.965 41.545 163.845 41.455 163.8 41.23C163.725 40.885 163.635 40.18 163.575 39.415C164.55 39.565 165.3 39.595 166.815 39.595H171.645C172.785 39.595 173.94 39.565 175.095 39.55C175.32 39.535 175.365 39.58 175.365 39.76C175.395 40.21 175.395 40.72 175.365 41.17C175.365 41.35 175.305 41.41 175.095 41.395C173.97 41.38 172.86 41.365 171.75 41.365ZM186.03 37.825V42.835C186.765 42.445 187.455 41.98 188.16 41.44C189.06 40.75 189.945 39.955 190.785 38.89C190.845 39.415 190.995 39.91 191.25 40.405C191.295 40.51 191.34 40.585 191.34 40.66C191.34 40.765 191.28 40.87 191.115 41.035C190.365 41.8 189.675 42.415 188.895 43C188.115 43.6 187.275 44.185 186.225 44.8C185.955 44.98 185.925 45.01 185.79 45.115C185.7 45.19 185.595 45.235 185.49 45.235C185.4 45.235 185.295 45.19 185.175 45.115C184.845 44.89 184.5 44.5 184.275 44.2C184.185 44.065 184.14 43.975 184.14 43.885C184.14 43.81 184.155 43.75 184.2 43.66C184.305 43.465 184.29 43.285 184.29 42.52V37.825C184.29 36.52 184.29 35.905 184.14 35.215C184.74 35.29 185.565 35.395 186.015 35.53C186.21 35.575 186.285 35.665 186.285 35.785C186.285 35.875 186.24 36.01 186.165 36.16C186.03 36.445 186.03 36.745 186.03 37.825ZM180.795 36.16C181.65 36.265 182.34 36.37 182.7 36.49C182.955 36.565 182.985 36.745 182.895 36.955C182.73 37.285 182.715 37.615 182.715 37.975C182.685 39.85 182.4 41.275 181.905 42.385C181.515 43.3 180.855 44.275 179.775 45.205C179.625 45.325 179.505 45.4 179.385 45.4C179.295 45.4 179.205 45.355 179.1 45.28C178.725 45.025 178.365 44.845 177.825 44.65C178.995 43.765 179.79 42.85 180.315 41.665C180.735 40.645 180.93 39.82 180.945 37.42C180.945 36.85 180.915 36.61 180.795 36.16Z" fill="black"/>
</svg>
