<svg width="209" height="33" viewBox="0 0 209 33" fill="none" xmlns="http://www.w3.org/2000/svg">
<path d="M20.1334 23.182C19.7653 22.3566 18.8131 21.9118 17.6807 22.0354C16.6012 22.1535 15.6762 22.6108 14.8962 23.351C13.9229 24.2751 13.7784 25.0889 14.3363 26.2915C13.4208 26.6889 12.6604 26.4007 12.0503 25.4766C11.4898 24.6281 10.9649 23.7401 10.2967 22.9818C9.92421 22.5589 9.52946 22.187 7.96208 21.4008C7.88261 21.2762 7.79954 21.1522 7.70939 21.03C7.35615 20.5502 6.98842 20.0691 6.72059 19.5415C6.1331 18.3837 6.46556 17.3659 7.65214 16.8662C8.32805 16.5818 9.0959 16.5221 9.80766 16.3119C10.1339 16.2155 10.5734 16.0779 10.7057 15.8252C11.2146 14.8536 11.62 13.8275 12.1369 12.6563C8.84968 12.5837 6.66783 13.8305 5.63814 16.9596C4.91212 14.9162 5.41899 13.0217 6.98369 11.6652C8.63472 10.2336 10.6505 9.72975 12.744 9.40886C13.112 9.35221 13.6545 9.21994 13.777 8.96193C15.0042 6.3767 16.1599 3.75797 17.3619 1.09149C17.0944 1.00904 16.9598 0.936974 16.8216 0.928967C13.223 0.723141 9.82158 1.38569 6.75355 3.3484C1.32982 6.81801 0.190413 12.6101 3.94234 17.841C4.78432 19.0145 5.85283 20.0306 6.85496 21.0828C7.94667 22.2291 8.10444 23.3804 7.25743 24.5284C5.76121 23.3659 4.58146 23.3062 2.98234 24.3659C1.70085 25.215 0.767836 26.3565 0.257429 27.8224C-0.278215 29.3599 0.0361767 30.8291 1.06795 31.6058C2.16914 32.4353 3.54552 32.3808 4.91481 31.3947C6.91694 29.9524 8.06468 27.9381 8.65666 25.586C8.77586 25.1124 8.83043 24.6506 8.82689 24.2001L8.84202 24.2422C9.35805 24.1028 9.88386 23.873 11.0203 25.1429C11.2965 25.4516 11.6084 25.7346 11.8801 26.0507C12.6598 26.9585 13.6396 27.436 14.8378 27.4114C16.5345 27.377 18.088 26.9105 19.3855 25.7716C20.2728 24.9928 20.5258 24.0628 20.1334 23.182Z" fill="#CB0000"/>
<path d="M32.1047 12.4232C32.0007 12.1242 31.9227 11.9032 31.7927 11.5782C31.6757 11.2922 31.5587 11.0322 31.3377 10.7462C31.8577 10.6552 32.3907 10.6032 32.9107 10.6032C33.0927 10.6032 33.1967 10.7072 33.1967 10.8372C33.1967 10.9152 33.1707 11.0062 33.1707 11.0842C33.1707 11.2012 33.1967 11.3312 33.2227 11.4742C33.3137 11.8122 33.3527 11.9292 33.4307 12.1502C34.4447 11.9552 35.1597 11.7602 36.0827 11.4612C36.1997 11.4092 36.2647 11.4222 36.3037 11.5262C36.3817 11.7732 36.4727 12.1372 36.5247 12.3972C36.5507 12.5272 36.4597 12.6052 36.3687 12.6312C35.4977 12.9042 34.7047 13.0992 33.8207 13.2942C33.9377 13.6192 34.1067 14.0222 34.2757 14.3862C35.3287 14.1652 36.0177 13.9442 36.6417 13.7102C36.7717 13.6452 36.8367 13.6712 36.8757 13.7882C36.9927 14.0872 37.0447 14.3342 37.1097 14.6462C37.1357 14.7632 37.1357 14.8282 37.0057 14.8802C36.3557 15.1272 35.5367 15.3612 34.8087 15.5172C35.3677 16.4532 35.8747 17.1812 36.5117 17.7662C36.6417 17.8832 36.6417 17.9352 36.5767 18.0782C36.4337 18.3772 36.2517 18.6372 36.0437 18.8842C35.9657 18.9752 35.9137 19.0142 35.8357 19.0142C35.7837 19.0142 35.7317 18.9882 35.6537 18.9362C35.4457 18.7672 35.1857 18.6502 34.8867 18.5202C34.2237 18.2342 33.3657 18.1042 32.4427 18.1042C31.2207 18.1042 30.5057 18.4812 30.5057 19.0922C30.5057 19.9372 31.6107 20.2102 33.5997 20.2102C34.0807 20.2102 34.5617 20.1582 35.0297 20.1322C35.1597 20.1322 35.1987 20.1972 35.1857 20.3012C35.1337 20.6262 35.0427 21.1332 34.9257 21.4842C34.8867 21.6142 34.8347 21.6662 34.6527 21.6792C34.3537 21.7052 34.0417 21.7182 33.7167 21.7182C30.7267 21.7182 29.1407 20.8732 29.1407 19.2742C29.1407 17.8832 30.3367 17.0122 32.3647 17.0122C33.3137 17.0122 34.0807 17.1162 34.6007 17.3372C34.3017 16.9862 33.8727 16.3622 33.5217 15.8032C32.1827 16.0112 30.9087 16.1672 29.9597 16.1932C29.8167 16.1932 29.7647 16.1412 29.7257 16.0112C29.6477 15.7512 29.5307 15.3092 29.4917 14.9452C30.7917 14.9192 31.8317 14.8152 32.9887 14.6202C32.8587 14.3472 32.6637 13.9052 32.4947 13.5412C31.2987 13.7232 30.3367 13.8402 29.3357 13.8532C29.1797 13.8532 29.1017 13.8012 29.0757 13.6712C29.0367 13.5282 28.9457 13.0472 28.8677 12.6312C30.1417 12.6442 31.1817 12.5402 32.1047 12.4232ZM45.3387 12.9302C45.8457 12.8392 46.5477 12.6702 47.1847 12.4882C47.3277 12.4492 47.3797 12.5142 47.3927 12.6182C47.4317 12.9042 47.4707 13.2812 47.4837 13.5542C47.4967 13.7232 47.4577 13.7622 47.2887 13.8012C46.4827 14.0222 45.8197 14.1652 45.0267 14.2952C44.1427 17.1812 43.4797 19.1702 42.6477 21.3282C42.5827 21.5102 42.5047 21.4972 42.3617 21.4582C42.2317 21.4062 41.5947 21.1332 41.3217 20.9772C41.2177 20.9122 41.1787 20.8082 41.2177 20.7172C42.2057 18.4422 42.8297 16.7262 43.4667 14.5552C42.7127 14.6332 41.8027 14.6982 41.1917 14.6982C40.9967 14.6982 40.9447 14.6592 40.9187 14.4902C40.8667 14.2172 40.8017 13.7752 40.7367 13.3072C41.0097 13.3462 41.1657 13.3462 41.6987 13.3462C42.3487 13.3462 43.0507 13.3072 43.8047 13.2162C43.9347 12.6962 44.0387 12.1242 44.1297 11.5912C44.1817 11.2012 44.2077 10.8112 44.2077 10.3952C44.8967 10.4992 45.4297 10.5902 45.8457 10.7592C45.9497 10.7982 45.9887 10.8892 45.9887 10.9672C45.9887 11.0192 45.9887 11.0842 45.9237 11.1752C45.8197 11.3572 45.7157 11.4872 45.6507 11.6952C45.5207 12.1632 45.4297 12.6052 45.3387 12.9302ZM45.5727 18.8972C45.9757 18.7932 46.5087 18.7022 46.6777 18.7022C46.8077 18.7022 46.8597 18.7542 46.8727 18.8842C46.9767 19.8332 47.6137 20.1062 48.8617 20.1062C49.5897 20.1062 50.5257 19.9892 51.0457 19.9242C51.1497 19.9112 51.1887 19.9372 51.2017 20.0412C51.2537 20.3792 51.3057 20.8212 51.3057 21.1722C51.3187 21.3282 51.3057 21.3672 51.0977 21.3802C50.6557 21.4452 49.8107 21.5232 49.3297 21.5232C47.6267 21.5232 46.7427 21.2892 46.1577 20.6782C45.7417 20.2622 45.5987 19.6512 45.5727 18.8972ZM46.5867 16.4402C46.5607 15.9852 46.5347 15.5172 46.5347 15.2572C46.5347 15.0752 46.5737 15.0362 46.7687 14.9972C47.5877 14.8282 48.5497 14.6982 49.3037 14.6982C49.8107 14.6982 50.3697 14.7502 50.8247 14.8282C51.0067 14.8542 51.0457 14.8672 51.0457 15.0232C51.0717 15.3482 51.0717 15.7122 51.0587 16.0632C51.0587 16.2842 50.9937 16.3362 50.8117 16.2972C50.3567 16.2062 49.7587 16.1412 49.1997 16.1412C48.4197 16.1412 47.4317 16.2712 46.5867 16.4402ZM56.4147 12.6962V11.5392C56.4147 11.2012 56.3757 10.8242 56.2587 10.4732C56.9217 10.5252 57.4417 10.5902 57.8057 10.6942C57.9747 10.7332 58.0787 10.8112 58.0787 10.9152C58.0787 10.9932 58.0527 11.0712 57.9747 11.2142C57.9097 11.3442 57.8837 11.4742 57.8707 11.6562C57.8577 11.9032 57.8577 12.1112 57.8447 12.5272C58.4427 12.4362 59.0017 12.3322 59.6387 12.1762C59.8597 12.1242 59.8727 12.1632 59.8857 12.3322C59.9247 12.6572 59.9507 12.9562 59.9507 13.2682C59.9507 13.4242 59.8987 13.4502 59.7947 13.4762C59.2097 13.6192 58.5857 13.7232 57.7797 13.8272C57.7407 14.7632 57.7277 15.2572 57.7017 16.1672C57.7797 16.4012 57.8187 16.6742 57.8187 17.0382C57.8187 17.7142 57.6367 18.3122 57.1947 18.7282C57.0517 19.0012 57.0127 19.2612 57.0127 19.5082C57.0127 20.0152 57.2727 20.3532 58.7157 20.3532C60.6917 20.3532 61.7057 19.8592 61.7057 18.8192C61.7057 18.3122 61.6537 17.8312 61.4327 17.1032C62.0047 17.3632 62.3947 17.4282 62.7457 17.4802C62.8627 17.4932 62.9797 17.5972 63.0057 17.7142C63.1097 18.0652 63.2007 18.5462 63.2007 19.1442C63.2007 20.7822 61.8877 21.7052 58.8977 21.7052C56.5967 21.7052 55.6087 21.1202 55.6087 19.8592C55.6087 19.4822 55.6607 19.2482 55.7387 19.0012C55.6867 19.0142 55.6087 19.0142 55.5307 19.0142C54.6337 19.0142 53.9707 18.1692 53.9707 17.1422C53.9707 15.9852 54.7377 15.1012 55.6997 15.1012C56.0117 15.1012 56.2067 15.1402 56.3887 15.2052C56.4017 14.7762 56.4147 14.3732 56.4147 13.9442C55.5957 13.9832 54.8807 13.9832 54.2437 13.9702C54.1267 13.9702 54.0877 13.9182 54.0747 13.7752C54.0357 13.5152 53.9967 13.1382 53.9577 12.6832C54.7767 12.7482 55.4007 12.7352 56.4147 12.6962ZM55.8037 16.1672C55.3357 16.1672 55.0887 16.5312 55.0887 17.0512C55.0887 17.5972 55.3617 17.9222 55.8427 17.9092C56.2457 17.8962 56.5187 17.5322 56.5057 16.9602C56.5057 16.4792 56.2457 16.1672 55.8037 16.1672ZM61.2507 13.9052C61.5757 13.5282 61.9007 13.1772 62.0827 12.9952C62.1867 12.8912 62.2387 12.8912 62.3557 12.9432C63.2657 13.3462 64.2537 14.1132 64.8127 14.7242C64.8647 14.7762 64.8777 14.8152 64.8777 14.8542C64.8777 14.8932 64.8517 14.9452 64.8127 14.9972C64.5787 15.3352 64.3317 15.6342 64.0717 15.8942C64.0197 15.9462 63.9807 15.9722 63.9287 15.9722C63.8897 15.9722 63.8377 15.9332 63.7857 15.8682C63.1877 15.1532 62.3037 14.4252 61.2507 13.9052ZM69.4797 11.4872C69.7917 11.0192 70.0387 10.6812 70.2467 10.4732C70.3117 10.4082 70.3897 10.3692 70.4937 10.4082C71.4557 10.7852 72.2617 11.2792 73.0417 11.9552C73.1067 12.0072 73.1327 12.0462 73.1327 12.0982C73.1327 12.1372 73.1067 12.1892 73.0677 12.2542C72.8987 12.5272 72.6257 12.9042 72.4047 13.1642C72.3527 13.2292 72.3007 13.2682 72.2617 13.2682C72.2097 13.2682 72.1707 13.2422 72.1057 13.1772C71.3777 12.5402 70.5067 11.9422 69.4797 11.4872ZM68.5697 13.2942C69.0767 13.4372 69.6227 13.5932 69.9217 13.7622C70.0647 13.8272 70.1297 13.9052 70.1297 14.0092C70.1297 14.0742 70.1037 14.1392 70.0647 14.2042C69.9477 14.4122 69.8567 14.6462 69.8047 14.8932C69.6747 15.5562 69.5447 16.5182 69.4927 17.2592C70.6887 16.0502 72.2487 15.2052 73.8347 15.2052C75.7327 15.2052 76.8637 16.3102 76.8637 17.9872C76.8637 19.4042 76.0187 20.3402 74.9007 20.8992C74.0297 21.3412 72.6907 21.6532 71.5727 21.7962C71.2867 21.8352 71.1697 21.8222 71.0527 21.6272C70.8057 21.1852 70.5717 20.8342 70.1687 20.5222C71.6247 20.4312 72.8727 20.1842 73.7437 19.7942C74.7967 19.3392 75.2777 18.6632 75.2777 17.8312C75.2777 17.1292 74.8357 16.4922 73.7177 16.4922C72.5737 16.4922 71.1957 17.2332 69.9737 18.4682C69.7397 18.7022 69.5707 18.9232 69.4147 19.1832C69.3367 19.3132 69.2847 19.3132 69.1157 19.2742C68.8167 19.1702 68.5047 19.0532 68.2317 18.9232C68.1017 18.8712 68.0497 18.8452 68.0497 18.6632C68.1277 17.1552 68.2967 15.6212 68.4527 14.4642C68.5047 14.0742 68.5697 13.7362 68.5697 13.2942ZM82.5447 12.1632C82.7007 11.7862 82.9867 11.1232 83.0907 10.9152C83.1947 10.7072 83.2597 10.7072 83.4417 10.7462C84.8197 11.0062 86.7827 11.5392 88.0697 12.1112C88.2777 12.2022 88.3037 12.2672 88.2257 12.4362C88.1347 12.7482 87.9007 13.2812 87.7707 13.5672C87.7057 13.7232 87.5887 13.7232 87.4587 13.6582C85.9377 12.9692 84.2087 12.4622 82.5447 12.1632ZM81.6737 15.5432C81.8817 15.0232 82.1027 14.5422 82.2327 14.3082C82.2977 14.1652 82.3757 14.1262 82.5707 14.1782C83.9487 14.4772 85.4437 14.9322 86.5357 15.4392C86.7437 15.5302 86.7697 15.6212 86.7047 15.8162C86.6267 16.0632 86.4057 16.5702 86.2757 16.8172C86.2107 16.9342 86.1587 16.9862 86.0937 16.9862C86.0417 16.9862 85.9897 16.9732 85.9247 16.9342C84.5337 16.2712 83.1557 15.8682 81.6737 15.5432ZM81.4657 19.4042C81.6347 19.0012 81.8947 18.4812 82.0637 18.1822C82.1287 18.0652 82.2067 17.9872 82.4277 18.0262C84.4037 18.3252 86.5747 19.0402 88.6547 20.0542C88.7977 20.1192 88.8757 20.2232 88.7847 20.4052C88.6287 20.7822 88.4467 21.1462 88.2647 21.4712C88.1997 21.5752 88.1477 21.6272 88.0697 21.6272C88.0177 21.6272 87.9527 21.6012 87.8877 21.5622C85.7817 20.4962 83.7147 19.8332 81.4657 19.4042ZM100.069 19.3782H100.68C101.2 19.3782 101.772 19.3652 102.266 19.3652C102.487 19.3522 102.539 19.3912 102.552 19.5992C102.565 19.8462 102.565 20.1712 102.552 20.4182C102.539 20.6652 102.5 20.6782 102.305 20.6782C101.72 20.6782 101.096 20.6652 100.498 20.6652H95.7137C95.1807 20.6652 94.6737 20.6652 94.0367 20.6912C93.8937 20.6912 93.8417 20.6262 93.8157 20.4312C93.7637 20.1582 93.7507 19.7422 93.7507 19.3392C94.4917 19.3912 94.9727 19.3912 95.6227 19.3912H98.6387L99.0807 16.2322H96.9877C96.4807 16.2322 95.8957 16.2582 95.5577 16.2712C95.4017 16.2842 95.3497 16.2452 95.3237 16.0242C95.2847 15.7512 95.2587 15.3352 95.2327 14.9062C96.1037 14.9452 96.4937 14.9712 97.0397 14.9712H98.8337C99.3017 14.9712 99.4187 14.9322 99.6007 14.8542C99.6527 14.8152 99.7047 14.8022 99.7437 14.8022C99.8087 14.8022 99.8737 14.8412 99.9387 14.8802C100.173 15.0492 100.524 15.3352 100.732 15.5952C100.81 15.6732 100.849 15.7512 100.849 15.8292C100.849 15.9072 100.81 15.9852 100.732 16.0632C100.563 16.2452 100.524 16.3882 100.472 16.7132L100.069 19.3782ZM113.082 17.0382H108.402C107.115 17.0382 106.621 17.1942 106.491 17.1942C106.335 17.1942 106.231 17.1162 106.192 16.9212C106.127 16.6222 106.049 16.0112 105.997 15.3482C106.842 15.4782 107.492 15.5042 108.805 15.5042H112.991C113.979 15.5042 114.98 15.4782 115.981 15.4652C116.176 15.4522 116.215 15.4912 116.215 15.6472C116.241 16.0372 116.241 16.4792 116.215 16.8692C116.215 17.0252 116.163 17.0772 115.981 17.0642C115.006 17.0512 114.044 17.0382 113.082 17.0382ZM118.919 15.5302C119.244 15.0102 119.452 14.6332 119.608 14.4252C119.673 14.3342 119.738 14.2692 119.855 14.2952C120.83 14.6202 121.61 15.0362 122.351 15.5692C122.442 15.6342 122.494 15.6862 122.494 15.7642C122.494 15.8032 122.468 15.8552 122.442 15.9072C122.299 16.2582 122.078 16.5962 121.87 16.8952C121.805 16.9732 121.753 17.0252 121.701 17.0252C121.649 17.0252 121.61 16.9992 121.545 16.9472C120.713 16.3362 119.868 15.9072 118.919 15.5302ZM120.492 12.4752C120.713 12.1372 120.96 11.7732 121.181 11.4352C121.272 11.2792 121.35 11.2532 121.506 11.3312C122.338 11.6692 123.235 12.1502 123.95 12.7742C124.028 12.8262 124.054 12.8912 124.054 12.9432C124.054 12.9952 124.041 13.0472 124.002 13.1122C123.82 13.4372 123.56 13.8532 123.339 14.0872C123.3 14.1522 123.248 14.1652 123.209 14.1652C123.144 14.1652 123.079 14.1262 123.014 14.0742C122.338 13.5152 121.324 12.8522 120.492 12.4752ZM119.946 19.8852C120.492 19.7812 120.947 19.6382 121.714 19.2482C122.949 18.5982 124.015 17.9872 125.276 16.9992C126.316 16.2062 127.707 14.9582 129.02 13.3722C129.098 13.9442 129.202 14.2692 129.397 14.8282C129.436 14.9192 129.462 14.9972 129.462 15.0752C129.462 15.1792 129.423 15.2702 129.319 15.3742C128.11 16.6742 127.291 17.3892 126.017 18.3772C124.886 19.2352 123.677 19.9762 122.13 20.8212C121.818 20.9902 121.506 21.1332 121.376 21.2632C121.298 21.3412 121.233 21.3672 121.168 21.3672C121.077 21.3672 120.986 21.3152 120.908 21.2112C120.635 20.9382 120.284 20.4312 119.946 19.8852ZM126.446 11.5132L127.135 11.0322C127.2 10.9802 127.252 10.9932 127.33 11.0582C127.733 11.3702 128.201 11.8902 128.565 12.4492C128.617 12.5272 128.617 12.5922 128.526 12.6572L127.98 13.0602C127.889 13.1252 127.824 13.1122 127.759 13.0212C127.369 12.4232 126.953 11.9292 126.446 11.5132ZM127.642 10.6552L128.292 10.1872C128.37 10.1352 128.409 10.1482 128.487 10.2132C128.968 10.5772 129.436 11.0972 129.722 11.5522C129.774 11.6302 129.787 11.7082 129.683 11.7862L129.163 12.1892C129.059 12.2672 128.994 12.2282 128.942 12.1502C128.591 11.5912 128.175 11.0972 127.642 10.6552ZM133.011 14.9322C133.453 14.6852 133.765 14.5422 134.038 14.4122C134.181 14.3472 134.272 14.3602 134.376 14.5032C134.831 15.0752 135.247 15.7382 135.494 16.4272C135.52 16.5182 135.546 16.5702 135.546 16.6222C135.546 16.7002 135.494 16.7392 135.39 16.8042C135.078 16.9862 134.857 17.0902 134.558 17.2072C134.376 17.2722 134.298 17.2072 134.233 17.0252C133.934 16.2712 133.531 15.5562 133.011 14.9322ZM135.624 14.2692C136.144 14.0222 136.443 13.8792 136.664 13.7882C136.807 13.7232 136.898 13.7362 137.002 13.8922C137.353 14.3472 137.795 15.1662 138.003 15.7902C138.068 15.9852 138.042 16.0502 137.873 16.1412C137.626 16.2842 137.34 16.4142 136.976 16.5442C136.833 16.5962 136.781 16.5312 136.716 16.3492C136.417 15.5822 136.118 14.9582 135.624 14.2692ZM139.719 13.9572C140.265 14.1262 140.85 14.3602 141.175 14.5812C141.279 14.6592 141.344 14.7242 141.344 14.8022C141.344 14.8802 141.305 14.9452 141.201 15.0362C141.006 15.2052 140.915 15.4652 140.811 15.6992C140.252 17.0252 139.576 18.2082 138.848 19.1572C137.99 20.2492 137.275 20.9382 136.17 21.6662C136.066 21.7442 135.962 21.8092 135.858 21.8092C135.793 21.8092 135.715 21.7832 135.65 21.7182C135.325 21.4582 135.026 21.3152 134.545 21.1722C136.105 20.1452 136.885 19.4822 137.665 18.4682C138.315 17.6232 139.043 16.3492 139.42 15.3352C139.589 14.8542 139.667 14.5682 139.719 13.9572ZM150.158 12.7482L152.498 12.6962C152.836 12.6832 153.005 12.6312 153.148 12.5402C153.2 12.5012 153.252 12.4882 153.317 12.4882C153.382 12.4882 153.447 12.5142 153.525 12.5662C153.85 12.7742 154.149 13.0212 154.409 13.2682C154.526 13.3722 154.578 13.4762 154.578 13.5672C154.578 13.6712 154.513 13.7622 154.422 13.8402C154.24 13.9832 154.11 14.1652 153.993 14.3992C153.122 16.1672 152.29 17.4282 151.419 18.4162C150.301 19.6772 148.754 20.9382 147.467 21.6532C147.389 21.7052 147.324 21.7182 147.259 21.7182C147.155 21.7182 147.064 21.6662 146.96 21.5752C146.635 21.3152 146.232 21.1202 145.725 20.9772C147.753 19.8592 148.78 19.0402 150.054 17.6622C151.081 16.5182 151.679 15.6342 152.459 13.9702L149.313 14.0612C148.247 15.3742 147.597 16.1152 146.856 16.7262C146.765 16.8172 146.674 16.8692 146.583 16.8692C146.518 16.8692 146.453 16.8432 146.388 16.7912C146.063 16.5572 145.582 16.3232 145.14 16.2322C146.83 14.8542 147.831 13.6452 148.637 12.3712C149.066 11.6432 149.261 11.2402 149.404 10.6162C150.145 10.8762 150.639 11.0972 150.925 11.3052C151.016 11.3702 151.055 11.4482 151.055 11.5262C151.055 11.6042 151.016 11.6822 150.912 11.7472C150.782 11.8252 150.691 11.9682 150.587 12.0982C150.444 12.3192 150.314 12.5142 150.158 12.7482ZM161.13 12.0202H164.705C165.173 12.0202 165.407 12.0072 165.602 11.9032C165.654 11.8642 165.693 11.8512 165.745 11.8512C165.823 11.8512 165.888 11.9032 165.966 11.9552C166.265 12.1892 166.564 12.5272 166.811 12.8652C166.85 12.9302 166.876 12.9822 166.876 13.0342C166.876 13.1122 166.824 13.2032 166.707 13.2942C166.538 13.4372 166.369 13.6322 166.226 13.8662C165.693 14.7762 165.186 15.5042 164.562 16.2972C165.81 17.2202 166.967 18.2342 168.163 19.4432C168.228 19.5082 168.267 19.5732 168.267 19.6252C168.267 19.6772 168.241 19.7422 168.176 19.8202C167.929 20.1192 167.63 20.4312 167.305 20.7042C167.253 20.7562 167.201 20.7822 167.149 20.7822C167.084 20.7822 167.032 20.7432 166.967 20.6782C165.875 19.4042 164.757 18.3772 163.587 17.4542C162.118 18.9882 160.636 20.0932 159.219 20.8862C159.102 20.9382 159.011 20.9902 158.92 20.9902C158.842 20.9902 158.764 20.9512 158.699 20.8732C158.413 20.5222 158.036 20.2622 157.607 20.0282C159.635 19.0012 160.844 18.0782 162.183 16.7132C163.119 15.7382 163.834 14.8152 164.627 13.4502L161.273 13.4632C160.597 13.4632 159.921 13.4892 159.219 13.5412C159.115 13.5542 159.076 13.4632 159.05 13.3202C158.985 13.0472 158.933 12.4232 158.933 11.9682C159.635 12.0202 160.285 12.0202 161.13 12.0202ZM176.158 12.7482L178.498 12.6962C178.836 12.6832 179.005 12.6312 179.148 12.5402C179.2 12.5012 179.252 12.4882 179.317 12.4882C179.382 12.4882 179.447 12.5142 179.525 12.5662C179.85 12.7742 180.149 13.0212 180.409 13.2682C180.526 13.3722 180.578 13.4762 180.578 13.5672C180.578 13.6712 180.513 13.7622 180.422 13.8402C180.24 13.9832 180.11 14.1652 179.993 14.3992C179.122 16.1672 178.29 17.4282 177.419 18.4162C176.301 19.6772 174.754 20.9382 173.467 21.6532C173.389 21.7052 173.324 21.7182 173.259 21.7182C173.155 21.7182 173.064 21.6662 172.96 21.5752C172.635 21.3152 172.232 21.1202 171.725 20.9772C173.753 19.8592 174.78 19.0402 176.054 17.6622C177.081 16.5182 177.679 15.6342 178.459 13.9702L175.313 14.0612C174.247 15.3742 173.597 16.1152 172.856 16.7262C172.765 16.8172 172.674 16.8692 172.583 16.8692C172.518 16.8692 172.453 16.8432 172.388 16.7912C172.063 16.5572 171.582 16.3232 171.14 16.2322C172.83 14.8542 173.831 13.6452 174.637 12.3712C175.066 11.6432 175.261 11.2402 175.404 10.6162C176.145 10.8762 176.639 11.0972 176.925 11.3052C177.016 11.3702 177.055 11.4482 177.055 11.5262C177.055 11.6042 177.016 11.6822 176.912 11.7472C176.782 11.8252 176.691 11.9682 176.587 12.0982C176.444 12.3192 176.314 12.5142 176.158 12.7482ZM191.082 17.0382H186.402C185.115 17.0382 184.621 17.1942 184.491 17.1942C184.335 17.1942 184.231 17.1162 184.192 16.9212C184.127 16.6222 184.049 16.0112 183.997 15.3482C184.842 15.4782 185.492 15.5042 186.805 15.5042H190.991C191.979 15.5042 192.98 15.4782 193.981 15.4652C194.176 15.4522 194.215 15.4912 194.215 15.6472C194.241 16.0372 194.241 16.4792 194.215 16.8692C194.215 17.0252 194.163 17.0772 193.981 17.0642C193.006 17.0512 192.044 17.0382 191.082 17.0382ZM203.458 13.9702V18.3122C204.095 17.9742 204.693 17.5712 205.304 17.1032C206.084 16.5052 206.851 15.8162 207.579 14.8932C207.631 15.3482 207.761 15.7772 207.982 16.2062C208.021 16.2972 208.06 16.3622 208.06 16.4272C208.06 16.5182 208.008 16.6092 207.865 16.7522C207.215 17.4152 206.617 17.9482 205.941 18.4552C205.265 18.9752 204.537 19.4822 203.627 20.0152C203.393 20.1712 203.367 20.1972 203.25 20.2882C203.172 20.3532 203.081 20.3922 202.99 20.3922C202.912 20.3922 202.821 20.3532 202.717 20.2882C202.431 20.0932 202.132 19.7552 201.937 19.4952C201.859 19.3782 201.82 19.3002 201.82 19.2222C201.82 19.1572 201.833 19.1052 201.872 19.0272C201.963 18.8582 201.95 18.7022 201.95 18.0392V13.9702C201.95 12.8392 201.95 12.3062 201.82 11.7082C202.34 11.7732 203.055 11.8642 203.445 11.9812C203.614 12.0202 203.679 12.0982 203.679 12.2022C203.679 12.2802 203.64 12.3972 203.575 12.5272C203.458 12.7742 203.458 13.0342 203.458 13.9702ZM198.921 12.5272C199.662 12.6182 200.26 12.7092 200.572 12.8132C200.793 12.8782 200.819 13.0342 200.741 13.2162C200.598 13.5022 200.585 13.7882 200.585 14.1002C200.559 15.7252 200.312 16.9602 199.883 17.9222C199.545 18.7152 198.973 19.5602 198.037 20.3662C197.907 20.4702 197.803 20.5352 197.699 20.5352C197.621 20.5352 197.543 20.4962 197.452 20.4312C197.127 20.2102 196.815 20.0542 196.347 19.8852C197.361 19.1182 198.05 18.3252 198.505 17.2982C198.869 16.4142 199.038 15.6992 199.051 13.6192C199.051 13.1252 199.025 12.9172 198.921 12.5272Z" fill="black"/>
</svg>
