<svg width="33" height="51" viewBox="0 0 33 51" fill="none" xmlns="http://www.w3.org/2000/svg">
<path d="M31.7522 35.8953C31.1718 34.5936 29.6699 33.892 27.8842 34.0871C26.1817 34.2732 24.7229 34.9944 23.4928 36.1619C21.9578 37.6193 21.73 38.9027 22.6098 40.7992C21.166 41.426 19.9667 40.9714 19.0046 39.514C18.1207 38.1758 17.2928 36.7755 16.2391 35.5795C15.6516 34.9126 15.0291 34.3261 12.5572 33.0862C12.4318 32.8897 12.3009 32.6942 12.1587 32.5015C11.6016 31.7448 11.0217 30.9861 10.5993 30.1541C9.67278 28.3281 10.1971 26.7229 12.0684 25.9348C13.1344 25.4863 14.3453 25.3923 15.4678 25.0606C15.9823 24.9086 16.6754 24.6916 16.884 24.2931C17.6866 22.7609 18.326 21.1426 19.1412 19.2956C13.957 19.181 10.5161 21.1473 8.89217 26.0821C7.74721 22.8596 8.54656 19.8718 11.0142 17.7325C13.618 15.4748 16.797 14.6802 20.0986 14.1741C20.679 14.0848 21.5345 13.8762 21.7277 13.4693C23.6631 9.39221 25.4858 5.26228 27.3814 1.05706C26.9595 0.927039 26.7472 0.813384 26.5293 0.800757C20.854 0.476161 15.4898 1.52103 10.6513 4.61637C2.09767 10.0882 0.300737 19.2226 6.21779 27.4722C7.54564 29.3229 9.23079 30.9253 10.8112 32.5848C12.5329 34.3925 12.7817 36.2082 11.4459 38.0187C9.08629 36.1852 7.22573 36.0912 4.70381 37.7624C2.68282 39.1014 1.21138 40.9017 0.40645 43.2136C-0.438276 45.6382 0.0575122 47.9553 1.68471 49.1802C3.42134 50.4884 5.59197 50.4024 7.75145 48.8472C10.909 46.5727 12.719 43.396 13.6526 39.6866C13.8406 38.9396 13.9267 38.2114 13.9211 37.5009L13.9449 37.5673C14.7587 37.3475 15.588 36.985 17.3803 38.9878C17.8157 39.4747 18.3078 39.9209 18.7362 40.4195C19.9658 41.8511 21.5111 42.6041 23.4007 42.5653C26.0765 42.5111 28.5264 41.7754 30.5726 39.9793C31.972 38.7511 32.371 37.2844 31.7522 35.8953Z" fill="white"/>
</svg>
